<svg width="231" height="192" viewBox="0 0 231 192" fill="none" xmlns="http://www.w3.org/2000/svg">
<path d="M16.2789 79C15.1456 79 14.2122 78.6333 13.4789 77.9C12.7456 77.1667 12.3789 76.2333 12.3789 75.1V4.8C12.3789 3.66666 12.7456 2.73333 13.4789 2C14.2122 1.26666 15.1456 0.899998 16.2789 0.899998C17.4122 0.899998 18.3456 1.26666 19.0789 2C19.8122 2.73333 20.1789 3.66666 20.1789 4.8V36H31.4789L58.6789 2.09999C59.4122 1.3 60.3122 0.899998 61.3789 0.899998C62.4456 0.833328 63.3456 1.16666 64.0789 1.9C65.6789 3.43333 65.7122 5.13333 64.1789 7L38.2789 38.9L67.0789 72.8C68.5456 74.5333 68.4122 76.2667 66.6789 78C66.0122 78.7333 65.1122 79.0667 63.9789 79C62.8456 79 61.9456 78.6 61.2789 77.8L31.9789 43H20.1789V75.1C20.1789 76.2333 19.8122 77.1667 19.0789 77.9C18.3456 78.6333 17.4122 79 16.2789 79ZM97.1313 79.8C94.0646 79.8 91.0979 78.8 88.2313 76.8C87.2313 76.1333 86.6646 75.3333 86.5313 74.4C86.3979 73.4 86.6979 72.4667 87.4313 71.6C88.8313 69.7333 90.6313 69.5 92.8313 70.9C94.2313 71.8333 95.7313 72.3 97.3313 72.3C99.3313 72.3 101.365 71.4 103.431 69.6C105.498 67.8 107.298 65.2333 108.831 61.9L109.931 59.7L78.5313 6.7C77.2646 4.5 77.7646 2.8 80.0313 1.6C82.1646 0.333329 83.8646 0.799996 85.1313 2.99999L113.331 52.5L136.431 3.3C137.498 1.03333 139.165 0.399999 141.431 1.4C143.631 2.4 144.198 4.03333 143.131 6.29999L115.531 65C113.331 69.7333 110.631 73.4 107.431 76C104.231 78.5333 100.798 79.8 97.1313 79.8ZM162.146 79C161.013 79 160.079 78.6333 159.346 77.9C158.613 77.1667 158.246 76.2333 158.246 75.1V4.8C158.246 3.66666 158.613 2.73333 159.346 2C160.079 1.26666 161.013 0.899998 162.146 0.899998C163.279 0.899998 164.213 1.26666 164.946 2C165.679 2.73333 166.046 3.66666 166.046 4.8V36H214.846V4.8C214.846 3.66666 215.213 2.73333 215.946 2C216.679 1.26666 217.613 0.899998 218.746 0.899998C219.879 0.899998 220.813 1.26666 221.546 2C222.279 2.73333 222.646 3.66666 222.646 4.8V75.1C222.646 76.2333 222.279 77.1667 221.546 77.9C220.813 78.6333 219.879 79 218.746 79C217.613 79 216.679 78.6333 215.946 77.9C215.213 77.1667 214.846 76.2333 214.846 75.1V43H166.046V75.1C166.046 76.2333 165.679 77.1667 164.946 77.9C164.213 78.6333 163.279 79 162.146 79ZM4.27266 191C2.73932 191 1.60599 190.367 0.872656 189.1C0.20599 187.833 0.172656 186.6 0.772656 185.4L30.1727 115.6C30.906 113.8 32.1393 112.9 33.8727 112.9C35.6727 112.9 36.9393 113.8 37.6727 115.6L67.1727 185.5C67.7727 186.767 67.706 188 66.9727 189.2C66.2393 190.4 65.1393 191 63.6727 191C61.9393 191 60.7393 190.2 60.0727 188.6L34.0727 125.8L7.87266 188.6C7.53932 189.4 7.03932 190 6.37266 190.4C5.77266 190.8 5.07266 191 4.27266 191ZM81.7781 191C80.2448 191 79.1448 190.367 78.4781 189.1C77.8115 187.833 77.7448 186.6 78.2781 185.4L107.678 115.6C108.411 113.8 109.678 112.9 111.478 112.9C113.211 112.9 114.445 113.8 115.178 115.6L144.678 185.5C145.278 186.767 145.178 188 144.378 189.2C143.645 190.4 142.578 191 141.178 191C139.378 191 138.145 190.2 137.478 188.6L130.878 172.4H92.0781L85.3781 188.6C85.0448 189.4 84.5448 190 83.8781 190.4C83.2781 190.8 82.5781 191 81.7781 191ZM94.8781 165.7H128.078L111.478 125.6L94.8781 165.7ZM190.538 192C184.738 192 179.404 191 174.538 189C169.671 187 165.438 184.2 161.838 180.6C158.304 177 155.538 172.767 153.538 167.9C151.604 163.033 150.638 157.7 150.638 151.9C150.638 146.167 151.604 140.867 153.538 136C155.538 131.133 158.304 126.9 161.838 123.3C165.438 119.7 169.671 116.9 174.538 114.9C179.404 112.9 184.738 111.9 190.538 111.9C196.271 111.9 201.571 112.9 206.438 114.9C211.304 116.9 215.538 119.7 219.138 123.3C222.738 126.9 225.504 131.133 227.438 136C229.438 140.867 230.438 146.167 230.438 151.9C230.438 157.7 229.438 163.033 227.438 167.9C225.504 172.767 222.738 177 219.138 180.6C215.538 184.2 211.304 187 206.438 189C201.571 191 196.271 192 190.538 192ZM190.538 184.6C195.138 184.6 199.404 183.8 203.338 182.2C207.271 180.533 210.671 178.233 213.538 175.3C216.471 172.3 218.738 168.833 220.338 164.9C221.938 160.9 222.738 156.567 222.738 151.9C222.738 147.3 221.938 143.033 220.338 139.1C218.738 135.1 216.471 131.633 213.538 128.7C210.671 125.7 207.271 123.4 203.338 121.8C199.404 120.133 195.138 119.3 190.538 119.3C185.871 119.3 181.571 120.133 177.638 121.8C173.704 123.4 170.271 125.7 167.338 128.7C164.471 131.633 162.238 135.1 160.638 139.1C159.038 143.033 158.238 147.3 158.238 151.9C158.238 156.567 159.038 160.9 160.638 164.9C162.238 168.833 164.471 172.3 167.338 175.3C170.271 178.233 173.704 180.533 177.638 182.2C181.571 183.8 185.871 184.6 190.538 184.6Z" fill="white"/>
</svg>
